<?xml version="1.0" encoding="UTF-8" standalone="no"?>
<svg
   version="1.1"
   x="0px"
   y="0px"
   viewBox="0 0 283.39998 83.400004"
   id="svg48"
   width="283.39999"
   height="83.400002"
   sodipodi:docname="Logotipo_cores_sem_tag.svg"
   inkscape:version="1.4.2 (unknown)"
   inkscape:export-filename="Logotipo_cores_sem_tag.png"
   inkscape:export-xdpi="57.549999"
   inkscape:export-ydpi="57.549999"
   xmlns:inkscape="http://www.inkscape.org/namespaces/inkscape"
   xmlns:sodipodi="http://sodipodi.sourceforge.net/DTD/sodipodi-0.dtd"
   xmlns="http://www.w3.org/2000/svg"
   xmlns:svg="http://www.w3.org/2000/svg">
  <defs
     id="defs46" />
  <sodipodi:namedview
     id="namedview44"
     pagecolor="#ffffff"
     bordercolor="#666666"
     borderopacity="1.0"
     inkscape:showpageshadow="2"
     inkscape:pageopacity="0.0"
     inkscape:pagecheckerboard="0"
     inkscape:deskcolor="#d1d1d1"
     showgrid="false"
     inkscape:zoom="2.1815294"
     inkscape:cx="233.32255"
     inkscape:cy="11.45985"
     inkscape:window-width="1920"
     inkscape:window-height="995"
     inkscape:window-x="0"
     inkscape:window-y="0"
     inkscape:window-maximized="1"
     inkscape:current-layer="Modo_de_isolamento" />
  <style
     type="text/css"
     id="style2">
	.st0{fill:#F7323F;stroke:#FFFFFF;stroke-width:0.7416;stroke-miterlimit:1;}
	.st1{fill:url(#XMLID_28_);}
	.st2{fill:#18667A;}
	.st3{fill:#135C6F;}
	.st4{fill:#004352;}
	.st5{fill:#F7323F;}
	.st6{fill:url(#XMLID_29_);}
</style>
  <g
     id="Camada_1"
     transform="translate(-7.1,-8.1)" />
  <g
     id="Modo_de_isolamento"
     transform="translate(-7.1,-8.1)">
    <path
       id="XMLID_136_"
       class="st0"
       d="M 21.2,70.3" />
    <linearGradient
       id="XMLID_28_"
       gradientUnits="userSpaceOnUse"
       x1="23.122"
       y1="76.328499"
       x2="90.119904"
       y2="68.102203">
      <stop
         offset="0.58"
         style="stop-color:#F7323F"
         id="stop6" />
      <stop
         offset="0.5924"
         style="stop-color:#E93543"
         id="stop8" />
      <stop
         offset="0.616"
         style="stop-color:#C33E4D"
         id="stop10" />
      <stop
         offset="0.6484"
         style="stop-color:#864C5D"
         id="stop12" />
      <stop
         offset="0.6879"
         style="stop-color:#336073"
         id="stop14" />
      <stop
         offset="0.7"
         style="stop-color:#18667A"
         id="stop16" />
    </linearGradient>
    <path
       id="XMLID_133_"
       class="st1"
       d="m 68.9,50.9 h -9 v 4.8 h 4.7 V 68.2 C 63.8,68 62.9,67.9 61.9,67.9 59.7,68 57.7,68.5 56,69.6 c -1.7,1 -3,2.5 -3.9,4.4 -0.2,-1.8 -1,-3.3 -2.4,-4.4 -1.4,-1.1 -3.2,-1.7 -5.4,-1.7 -2.3,0.1 -4.3,0.7 -6,1.8 -1.7,1.1 -3,2.6 -3.9,4.6 -0.1,-1 -0.2,-1.8 -0.2,-2.6 C 34.1,70.9 34.1,70 34,69.1 v -0.5 h -8.4 v 4.8 h 4 V 86.5 H 25 v 4.8 h 13.5 v -4.8 h -3.8 v -6.2 c 0,-1.1 0.2,-2 0.7,-2.9 0.4,-0.9 1,-1.7 1.8,-2.3 0.7,-0.6 1.6,-1.2 2.5,-1.5 1,-0.4 2,-0.5 3,-0.5 1.5,0.1 2.7,0.5 3.4,1.3 0.7,0.8 1.1,1.7 1.2,2.8 v 9.4 h -4.6 v 4.8 H 56 v -4.8 h -3.8 v -6.2 c 0,-1.1 0.2,-2 0.7,-2.9 0.4,-0.9 1,-1.7 1.8,-2.3 0.7,-0.6 1.6,-1.2 2.5,-1.5 1,-0.4 2,-0.5 3,-0.5 1.5,0.1 2.7,0.5 3.4,1.3 0.7,0.8 1.1,1.7 1.2,2.8 v 9.4 h -4.6 v 4.8 H 73.7 V 86.7 H 69.9 V 72.8 c 0,-0.2 0,-0.5 -0.1,-0.7 0.1,0.1 0.2,0.1 0.3,0.2 0.4,0.3 0.9,0.6 1.6,1 0.7,0.3 1.4,0.6 2.3,0.9 0.9,0.2 1.9,0.4 3.1,0.4 1.7,0 3.4,-0.3 4.9,-1 1.5,-0.6 2.8,-1.5 3.9,-2.6 1.1,-1.1 2,-2.4 2.6,-3.9 0.6,-1.5 1,-3 1,-4.7 0,-1.6 -0.3,-3.2 -1,-4.6 C 87.9,56.3 87,55.1 85.9,54 84.8,52.9 83.5,52 82,51.4 c -1.5,-0.6 -3.1,-1 -4.9,-1 -1.1,0 -2.1,0.2 -3,0.5 -0.9,0.3 -1.7,0.7 -2.4,1 -0.7,0.4 -1.3,0.8 -1.7,1.2 -0.4,0.4 -0.7,0.6 -0.7,0.8 m 12.9,13.5 c -1.3,1.4 -3.1,2.1 -5.2,2.1 -2.1,0 -3.9,-0.7 -5.2,-2.1 -1.3,-1.4 -2,-3.1 -2,-5.1 0,-2 0.7,-3.7 2,-5.1 1.3,-1.3 3.1,-2 5.2,-2 2.1,0 3.9,0.7 5.2,2 1.3,1.3 2,3 2,5.1 0,2.1 -0.7,3.7 -2,5.1 z"
       style="fill:url(#XMLID_28_)" />
    <path
       id="XMLID_130_"
       class="st2"
       d="m 114.8,53.9 c -1.1,-1.1 -2.4,-1.9 -3.9,-2.6 -1.5,-0.6 -3.1,-1 -4.9,-1 -1.7,0 -3.3,0.3 -4.8,1 -1.5,0.6 -2.8,1.5 -3.9,2.6 -1.1,1.1 -2,2.4 -2.6,3.8 -0.6,1.5 -1,3 -1,4.7 0,1.7 0.3,3.2 1,4.7 0.6,1.5 1.5,2.7 2.6,3.8 1.1,1.1 2.4,2 3.9,2.6 1.5,0.6 3.1,1 4.8,1 1.7,0 3.3,-0.3 4.9,-1 1.5,-0.6 2.8,-1.5 3.9,-2.6 1.1,-1.1 2,-2.4 2.6,-3.8 0.6,-1.5 1,-3 1,-4.7 0,-1.6 -0.3,-3.2 -1,-4.7 -0.6,-1.5 -1.5,-2.7 -2.6,-3.8 z m -2.4,11.3 c -0.4,0.9 -0.9,1.6 -1.5,2.2 -0.7,0.6 -1.4,1.1 -2.3,1.5 -0.9,0.4 -1.8,0.6 -2.8,0.6 -1,0 -1.9,-0.2 -2.8,-0.6 -0.9,-0.4 -1.6,-0.9 -2.3,-1.5 -0.6,-0.6 -1.1,-1.4 -1.5,-2.2 -0.4,-0.9 -0.6,-1.8 -0.6,-2.8 0,-1 0.2,-1.9 0.6,-2.8 0.4,-0.9 0.9,-1.6 1.5,-2.3 0.6,-0.7 1.4,-1.2 2.3,-1.5 0.9,-0.4 1.8,-0.6 2.8,-0.6 1,0 1.9,0.2 2.8,0.6 0.9,0.4 1.6,0.9 2.3,1.5 0.7,0.7 1.2,1.4 1.5,2.3 0.4,0.9 0.6,1.8 0.6,2.8 0,1 -0.2,1.9 -0.6,2.8 z" />
    <path
       id="XMLID_129_"
       class="st2"
       d="m 136.7,61.9 c -0.7,-0.6 -1.5,-1 -2.3,-1.4 -0.8,-0.4 -1.6,-0.7 -2.3,-1 -0.7,-0.3 -1.4,-0.6 -1.9,-0.9 -0.5,-0.3 -0.8,-0.7 -0.9,-1.2 -0.1,-0.7 0.1,-1.2 0.5,-1.6 0.4,-0.4 1.1,-0.6 2,-0.6 0.6,0 1.2,0.1 1.9,0.3 v 2.6 h 4.6 v -5.3 c -0.5,-0.5 -1,-0.9 -1.6,-1.2 -0.6,-0.3 -1.2,-0.6 -1.8,-0.8 -0.6,-0.2 -1.2,-0.3 -1.8,-0.4 -0.6,-0.1 -1.1,-0.1 -1.5,-0.1 -0.7,0 -1.5,0.1 -2.3,0.4 -0.9,0.2 -1.7,0.6 -2.4,1.2 -0.7,0.6 -1.4,1.3 -1.8,2.1 -0.5,0.9 -0.7,1.9 -0.7,3.2 0,1.4 0.2,2.6 0.7,3.4 0.5,0.9 1.1,1.5 1.9,2 0.8,0.5 1.6,0.8 2.5,1.1 0.9,0.3 1.7,0.5 2.4,0.8 0.7,0.3 1.3,0.6 1.8,1 0.5,0.4 0.7,1 0.6,1.7 0,0.6 -0.2,1 -0.5,1.3 -0.3,0.3 -0.6,0.5 -0.9,0.6 -0.3,0.1 -0.6,0.2 -0.9,0.2 -0.3,0 -0.4,0 -0.5,0 -0.7,0 -1.3,0 -1.8,-0.1 -0.5,-0.1 -1,-0.2 -1.5,-0.4 v -2.4 h -4.6 v 5.3 c 0.8,0.9 1.9,1.5 3.3,1.9 1.4,0.4 2.9,0.6 4.4,0.6 1.6,0 3,-0.3 4,-0.8 1,-0.5 1.8,-1.2 2.4,-2 0.6,-0.8 1,-1.6 1.2,-2.4 0.2,-0.8 0.3,-1.5 0.3,-2.1 0,-1.3 -0.2,-2.3 -0.7,-3.2 -0.6,-0.5 -1.1,-1.2 -1.8,-1.8 z" />
    <path
       id="XMLID_128_"
       class="st2"
       d="m 157.1,61.9 c -0.7,-0.6 -1.5,-1 -2.3,-1.4 -0.8,-0.4 -1.6,-0.7 -2.3,-1 -0.7,-0.3 -1.4,-0.6 -1.9,-0.9 -0.5,-0.3 -0.8,-0.7 -0.9,-1.2 -0.1,-0.7 0.1,-1.2 0.5,-1.6 0.4,-0.4 1.1,-0.6 2,-0.6 0.6,0 1.2,0.1 1.9,0.3 v 2.6 h 4.6 v -5.3 c -0.5,-0.5 -1,-0.9 -1.6,-1.2 -0.6,-0.3 -1.2,-0.6 -1.8,-0.8 -0.6,-0.2 -1.2,-0.3 -1.8,-0.4 -0.6,-0.1 -1.1,-0.1 -1.5,-0.1 -0.7,0 -1.5,0.1 -2.3,0.4 -0.9,0.2 -1.7,0.6 -2.4,1.2 -0.7,0.6 -1.4,1.3 -1.8,2.1 -0.5,0.9 -0.7,1.9 -0.7,3.2 0,1.4 0.2,2.6 0.7,3.4 0.5,0.9 1.1,1.5 1.9,2 0.8,0.5 1.6,0.8 2.5,1.1 0.9,0.3 1.7,0.5 2.4,0.8 0.7,0.3 1.3,0.6 1.8,1 0.5,0.4 0.7,1 0.6,1.7 0,0.6 -0.2,1 -0.5,1.3 -0.3,0.3 -0.6,0.5 -0.9,0.6 -0.3,0.1 -0.6,0.2 -0.9,0.2 -0.3,0 -0.4,0 -0.5,0 -0.7,0 -1.3,0 -1.8,-0.1 -0.5,-0.1 -1,-0.2 -1.5,-0.4 V 66.4 H 144 v 5.3 c 0.8,0.9 1.9,1.5 3.3,1.9 1.4,0.4 2.9,0.6 4.4,0.6 1.6,0 3,-0.3 4,-0.8 1,-0.5 1.8,-1.2 2.4,-2 0.6,-0.8 1,-1.6 1.2,-2.4 0.2,-0.8 0.3,-1.5 0.3,-2.1 0,-1.3 -0.2,-2.3 -0.7,-3.2 -0.5,-0.5 -1.1,-1.2 -1.8,-1.8 z" />
    <path
       id="XMLID_127_"
       class="st2"
       d="m 170.6,45.2 c 0.8,0 1.5,-0.3 2.2,-0.9 0.7,-0.6 1,-1.4 1,-2.3 0,-0.9 -0.3,-1.7 -1,-2.3 -0.7,-0.6 -1.4,-0.9 -2.2,-0.9 -0.8,0 -1.6,0.3 -2.2,0.9 -0.7,0.6 -1,1.4 -1,2.3 0,0.9 0.3,1.7 1,2.3 0.6,0.6 1.4,0.9 2.2,0.9 z" />
    <polygon
       id="XMLID_126_"
       class="st2"
       points="173,50.9 163.6,50.9 163.6,55.7 167.9,55.7 167.9,69.1 163.6,69.1 163.6,73.9 177.3,73.9 177.3,69.1 173,69.1 " />
    <path
       id="XMLID_123_"
       class="st2"
       d="m 207.4,53.9 c -1.1,-1.1 -2.4,-2 -3.9,-2.6 -1.5,-0.6 -3.1,-1 -4.9,-1 -1.1,0 -2.1,0.1 -3,0.4 -0.9,0.3 -1.7,0.6 -2.4,1 -0.7,0.4 -1.3,0.7 -1.7,1.1 -0.4,0.4 -0.7,0.6 -0.7,0.7 0.1,-0.3 0.2,-0.6 0.3,-1 0.1,-0.3 0.2,-0.6 0.3,-1 V 27.9 h -9.2 v 4.8 h 4.1 V 69 h -4.7 v 4.8 h 9.2 v -1.2 -1.2 c 0,0.1 0.2,0.3 0.6,0.7 0.4,0.3 0.9,0.7 1.6,1 0.7,0.3 1.5,0.7 2.4,0.9 0.9,0.3 2,0.4 3.2,0.4 1.7,0 3.3,-0.3 4.9,-1 1.5,-0.6 2.8,-1.5 3.9,-2.6 1.1,-1.1 2,-2.4 2.6,-3.9 0.6,-1.5 1,-3 1,-4.7 0,-1.6 -0.3,-3.2 -1,-4.6 -0.6,-1.3 -1.4,-2.6 -2.6,-3.7 z m -3.5,13.5 c -1.3,1.4 -3.1,2.1 -5.2,2.1 -2.1,0 -3.9,-0.7 -5.2,-2.1 -1.3,-1.4 -2,-3.1 -2,-5.1 0,-2 0.7,-3.7 2,-5.1 1.3,-1.3 3.1,-2 5.2,-2 2.1,0 3.9,0.7 5.2,2 1.3,1.3 2,3 2,5.1 0,2.1 -0.7,3.8 -2,5.1 z" />
    <path
       id="XMLID_122_"
       class="st2"
       d="m 222.3,45.2 c 0.8,0 1.5,-0.3 2.2,-0.9 0.7,-0.6 1,-1.4 1,-2.3 0,-0.9 -0.3,-1.7 -1,-2.3 -0.7,-0.6 -1.4,-0.9 -2.2,-0.9 -0.8,0 -1.6,0.3 -2.2,0.9 -0.7,0.6 -1,1.4 -1,2.3 0,0.9 0.3,1.7 1,2.3 0.6,0.6 1.4,0.9 2.2,0.9 z" />
    <polygon
       id="XMLID_121_"
       class="st2"
       points="224.8,50.9 215.3,50.9 215.3,55.7 219.7,55.7 219.7,69.1 215.3,69.1 215.3,73.9 229,73.9 229,69.1 224.8,69.1 " />
    <polygon
       id="XMLID_120_"
       class="st2"
       points="243.1,27.9 234,27.9 234,32.8 238,32.8 238,69.1 233.3,69.1 233.3,73.9 247,73.9 247,69.1 243.1,69.1 " />
    <polygon
       id="XMLID_119_"
       class="st2"
       points="260.8,50.9 251.3,50.9 251.3,55.7 255.7,55.7 255.7,69.1 251.3,69.1 251.3,73.9 265,73.9 265,69.1 260.8,69.1 " />
    <path
       id="XMLID_118_"
       class="st2"
       d="m 258.3,45.2 c 0.8,0 1.5,-0.3 2.2,-0.9 0.7,-0.6 1,-1.4 1,-2.3 0,-0.9 -0.3,-1.7 -1,-2.3 -0.7,-0.6 -1.4,-0.9 -2.2,-0.9 -0.8,0 -1.6,0.3 -2.2,0.9 -0.7,0.6 -1,1.4 -1,2.3 0,0.9 0.3,1.7 1,2.3 0.6,0.6 1.4,0.9 2.2,0.9 z" />
    <path
       id="XMLID_117_"
       class="st2"
       d="m 285.1,64 c -0.5,-0.8 -1,-1.5 -1.7,-2.1 -0.7,-0.6 -1.5,-1 -2.3,-1.4 -0.8,-0.4 -1.6,-0.7 -2.3,-1 -0.7,-0.3 -1.4,-0.6 -1.9,-0.9 -0.5,-0.3 -0.8,-0.7 -0.9,-1.2 -0.1,-0.7 0.1,-1.2 0.5,-1.6 0.4,-0.4 1.1,-0.6 2,-0.6 0.6,0 1.2,0.1 1.9,0.3 v 2.6 h 4.6 v -5.3 c -0.5,-0.5 -1,-0.9 -1.6,-1.2 -0.6,-0.3 -1.2,-0.6 -1.8,-0.8 -0.6,-0.2 -1.2,-0.3 -1.8,-0.4 -0.6,-0.1 -1.1,-0.1 -1.5,-0.1 -0.7,0 -1.5,0.1 -2.3,0.4 -0.9,0.2 -1.7,0.6 -2.4,1.2 -0.7,0.6 -1.4,1.3 -1.8,2.1 -0.5,0.9 -0.7,1.9 -0.7,3.2 0,1.4 0.2,2.6 0.7,3.4 0.5,0.9 1.1,1.5 1.9,2 0.8,0.5 1.6,0.8 2.5,1.1 0.9,0.3 1.7,0.5 2.4,0.8 0.7,0.3 1.3,0.6 1.8,1 0.5,0.4 0.7,1 0.6,1.7 0,0.6 -0.2,1 -0.5,1.3 -0.3,0.3 -0.6,0.5 -0.9,0.6 -0.3,0.1 -0.6,0.2 -0.9,0.2 -0.3,0 -0.4,0 -0.5,0 -0.7,0 -1.3,0 -1.8,-0.1 -0.5,-0.1 -1,-0.2 -1.5,-0.4 v -2.4 h -4.6 v 5.3 c 0.8,0.9 1.9,1.5 3.3,1.9 1.4,0.4 2.9,0.6 4.4,0.6 1.6,0 3,-0.3 4,-0.8 1,-0.5 1.8,-1.2 2.4,-2 0.6,-0.8 1,-1.6 1.2,-2.4 0.2,-0.8 0.3,-1.5 0.3,-2.1 -0.2,-1 -0.4,-2.1 -0.8,-2.9 z" />
    <g
       id="XMLID_111_">
      <g
         id="XMLID_115_">
        <polygon
           id="XMLID_116_"
           class="st3"
           points="54.9,21.9 31,8.1 7.1,21.9 31,35.7 " />
      </g>
      <polygon
         id="XMLID_114_"
         class="st2"
         points="30.7,36.3 30.7,49.9 7.1,22.7 " />
      <polygon
         id="XMLID_113_"
         class="st4"
         points="31.3,36.3 31.3,49.9 54.9,22.7 " />
      <polygon
         id="XMLID_112_"
         class="st5"
         points="39.2,41.8 54.9,50.9 31,64.7 7.1,50.9 22.8,41.8 31,51.3 " />
    </g>
    <g
       id="XMLID_109_">
      <linearGradient
         id="XMLID_29_"
         gradientUnits="userSpaceOnUse"
         x1="65.542099"
         y1="69.959999"
         x2="181.64619"
         y2="55.704201">
        <stop
           offset="0"
           style="stop-color:#F7323F"
           id="stop38" />
        <stop
           offset="1"
           style="stop-color:#18667A"
           id="stop40" />
      </linearGradient>
      <polygon
         id="XMLID_110_"
         class="st6"
         points="289,23.4 59.8,23.4 59.8,21.9 290.5,21.9 290.5,91.1 78.4,91.1 78.4,89.6 289,89.6 "
         style="fill:url(#XMLID_29_)" />
    </g>
    <path
       id="XMLID_108_"
       class="st5"
       d="m 14.1,64.7 c 0.8,0 1.5,-0.3 2.2,-0.9 0.7,-0.6 1,-1.4 1,-2.3 0,-0.9 -0.3,-1.7 -1,-2.3 -0.7,-0.6 -1.4,-0.9 -2.2,-0.9 -0.8,0 -1.6,0.3 -2.2,0.9 -0.7,0.6 -1,1.4 -1,2.3 0,0.9 0.3,1.7 1,2.3 0.6,0.6 1.3,0.9 2.2,0.9 z" />
    <polygon
       id="XMLID_107_"
       class="st5"
       points="16.5,68.1 7.1,68.1 7.1,72.9 11.4,72.9 11.4,86.2 7.1,86.2 7.1,91.1 20.8,91.1 20.8,86.2 16.5,86.2 " />
  </g>
</svg>
